/* XPM */
static char * phpserenamer_xpm[] = {
"32 16 133 2",
"  	c None",
". 	c #5A5AB4",
"+ 	c #6060C0",
"@ 	c #6161C2",
"# 	c #5656AC",
"$ 	c #1B1B37",
"% 	c #000000",
"& 	c #6666CD",
"* 	c #6666CC",
"= 	c #6767CF",
"- 	c #5C5CB8",
"; 	c #1E1E3C",
"> 	c #6565CB",
", 	c #6363C7",
"' 	c #5D5DBA",
") 	c #5959B3",
"! 	c #5858B2",
"~ 	c #5B5BB6",
"{ 	c #5E5EBD",
"] 	c #6565CA",
"^ 	c #6767CE",
"/ 	c #5C5CB7",
"( 	c #1E1E3B",
"_ 	c #07070E",
": 	c #090913",
"< 	c #0A0A14",
"[ 	c #080811",
"} 	c #040407",
"| 	c #3F3F7E",
"1 	c #131327",
"2 	c #07070D",
"3 	c #06060B",
"4 	c #0C0C19",
"5 	c #48488F",
"6 	c #5353A7",
"7 	c #4F4F9F",
"8 	c #37376D",
"9 	c #0C0C17",
"0 	c #6868D0",
"a 	c #46468C",
"b 	c #080810",
"c 	c #2A2A55",
"d 	c #5353A6",
"e 	c #5959B1",
"f 	c #4A4A94",
"g 	c #2A2A53",
"h 	c #5858B0",
"i 	c #5151A1",
"j 	c #1E1E3D",
"k 	c #222244",
"l 	c #35356B",
"m 	c #6060C2",
"n 	c #3F3F80",
"o 	c #020205",
"p 	c #6767CD",
"q 	c #333366",
"r 	c #121223",
"s 	c #6A6AD6",
"t 	c #6969D2",
"u 	c #6B6BD7",
"v 	c #50509F",
"w 	c #494992",
"x 	c #5656AD",
"y 	c #121224",
"z 	c #45458B",
"A 	c #6262C4",
"B 	c #6A6AD3",
"C 	c #6969D3",
"D 	c #6666CB",
"E 	c #494993",
"F 	c #5757AF",
"G 	c #121225",
"H 	c #5252A3",
"I 	c #0D0D1B",
"J 	c #25254A",
"K 	c #35356A",
"L 	c #6060BF",
"M 	c #5050A1",
"N 	c #141428",
"O 	c #17172E",
"P 	c #252549",
"Q 	c #5252A4",
"R 	c #3F3F7F",
"S 	c #05050A",
"T 	c #5151A2",
"U 	c #303060",
"V 	c #1C1C39",
"W 	c #0F0F1E",
"X 	c #232346",
"Y 	c #5B5BB7",
"Z 	c #4F4F9E",
"` 	c #4D4D9B",
" .	c #5F5FC0",
"..	c #101021",
"+.	c #5151A3",
"@.	c #3B3B75",
"#.	c #2F2F5D",
"$.	c #5353A5",
"%.	c #1D1D3B",
"&.	c #212142",
"*.	c #37376F",
"=.	c #5454A9",
"-.	c #6868D1",
";.	c #16162C",
">.	c #111123",
",.	c #6B6BD6",
"'.	c #424284",
").	c #0A0A15",
"!.	c #6A6AD4",
"~.	c #181830",
"{.	c #6A6AD5",
"].	c #26264C",
"^.	c #393972",
"/.	c #0D0D1C",
"(.	c #404081",
"_.	c #3C3C78",
":.	c #1A1A34",
"<.	c #484890",
"[.	c #4C4C98",
"}.	c #040409",
"|.	c #444488",
"1.	c #0B0B17",
"2.	c #323264",
"3.	c #141429",
"4.	c #232347",
"5.	c #4D4D99",
"6.	c #6464C9",
"7.	c #313162",
"8.	c #3F3F7D",
"9.	c #6161C3",
"0.	c #6262C5",
"a.	c #010102",
"b.	c #030306",
". + + + + + + + + + + + + + @ # $ % % % % % % % % % % % % % % % ",
"+ & * * * * & & & & * * * * = - ; % % % % % % % % % % % % % % % ",
"+ * * > * , ' ) ! ~ { ] * * ^ / ( % % % _ : < : [ } % % % % % % ",
"+ * > * , | 1 2 3 4 $ - & * ^ / ( % % % 5 . 6 6 7 8 9 % % % % % ",
"+ * * 0 a b c d e f g h & * ^ / ( % % % i 6 j k l m n o % % % % ",
"+ * * p q r ~ s = t u p > * ^ / ( % % % v w % % % l x y % % % % ",
"+ * * ^ 8 < z A B C ^ > D * ^ / ( % % % v E % % % q F G % % % % ",
"+ * > 0 H 1 I J K z L = > * ^ / ( % % % v M N O P Q R S % % % % ",
"+ * D * D T U V W _ X Y & * ^ / ( % % % Z { E `  .Q ..% % % % % ",
"+ * * > * t * Y +.@.% #.C * ^ / ( % % % v $.%.&.*.=.( % % % % % ",
"+ * > * & & * ^ -.C ;.>.,.* ^ / ( % % % v E % % S '.` ).% % % % ",
"+ * * ] { , u t !.!.I ~.{.* ^ / ( % % % v f % % % %.- ].% % % % ",
"+ * * * ^./.U (._.:.% <.= * ^ / ( % % % Q [.% % % }.|.` 1.% % % ",
"+ * * & x 2.%.3.;.4.5.6.* * ^ / ( % % % K 7.% % % % :.8.r % % % ",
"+ * * * > , 9.@ @ 0.] * > * ^ / ( % % % o o % % % % a.b.a.% % % ",
"+ * > > * * * * * * * > * * ^ / ( % % % % % % % % % % % % % % % "};
